<svg width="18" height="16" viewBox="0 0 18 16" fill="none" xmlns="http://www.w3.org/2000/svg">
<path d="M2.27448 8.4936C2.25861 8.28948 2.25053 8.08319 2.25053 7.875C2.25053 3.52576 5.77629 0 10.1255 0C14.4748 0 18.0005 3.52576 18.0005 7.875C18.0005 12.2242 14.4748 15.75 10.1255 15.75C7.52736 15.75 5.22309 14.4918 3.78876 12.5514L4.39186 12.1056C5.7279 13.913 7.83544 15 10.1255 15C14.0606 15 17.2505 11.81 17.2505 7.875C17.2505 3.93997 14.0606 0.75 10.1255 0.75C6.19051 0.75 3.00053 3.93997 3.00053 7.875C3.00053 8.06682 3.00812 8.2576 3.02315 8.44707L4.23535 7.23484L4.76572 7.76516L2.62553 9.90532L0.485352 7.76516L1.01572 7.23484L2.27448 8.4936ZM10.5005 3.75V8.08161L13.7496 10.9697L13.2514 11.5303L9.75053 8.41839V3.75H10.5005Z" fill="black"/>
</svg>
