<svg width="60" height="72" viewBox="0 0 60 72" fill="none" xmlns="http://www.w3.org/2000/svg">
<path d="M58.8 69.6H55.2V64.8H49.2V52.5336C49.2 49.2936 47.5896 46.284 44.8932 44.4864L32.1636 36L44.8932 27.5136C47.5896 25.716 49.2 22.7064 49.2 19.4664V7.2H55.2V2.4H58.8C59.4624 2.4 60 1.8636 60 1.2C60 0.5364 59.4624 0 58.8 0H55.2H54H6H4.8H1.2C0.5376 0 0 0.5364 0 1.2C0 1.8636 0.5376 2.4 1.2 2.4H4.8V7.2H10.8V19.4664C10.8 22.7064 12.4104 25.716 15.1068 27.5136L27.8364 36L15.1068 44.4864C12.4104 46.284 10.8 49.2936 10.8 52.5336V64.8H4.8V69.6H1.2C0.5376 69.6 0 70.1364 0 70.8C0 71.4636 0.5376 72 1.2 72H4.8H6H54H55.2H58.8C59.4624 72 60 71.4636 60 70.8C60 70.1364 59.4624 69.6 58.8 69.6ZM16.4376 25.5168C14.4108 24.1644 13.2 21.9024 13.2 19.4664V7.2H46.8V19.4664C46.8 21.9024 45.5892 24.1644 43.5624 25.5168L30 34.5576L16.4376 25.5168ZM13.2 52.5336C13.2 50.0976 14.4108 47.8356 16.4376 46.4832L30 37.4424L43.5624 46.4832C45.5892 47.8356 46.8 50.0976 46.8 52.5336V64.8H13.2V52.5336Z" fill="#2B3C4E"/>
<path d="M19.1005 21.5232C18.4117 21.0636 18.0001 20.2944 18.0001 19.4664V16.8C18.0001 16.1364 17.4625 15.6 16.8001 15.6C16.1377 15.6 15.6001 16.1364 15.6001 16.8V19.4664C15.6001 21.0996 16.4113 22.6152 17.7697 23.52L23.3353 27.2304C23.5393 27.366 23.7709 27.432 24.0001 27.432C24.3877 27.432 24.7681 27.2448 24.9997 26.898C25.3669 26.346 25.2181 25.602 24.6673 25.2336L19.1005 21.5232Z" fill="#2B3C4E"/>
<path d="M42.2303 49.512L36.6647 45.8016C36.1127 45.4332 35.3687 45.582 35.0003 46.134C34.6331 46.686 34.7819 47.43 35.3327 47.7984L40.8983 51.5088C41.5883 51.9684 41.9999 52.7364 41.9999 53.5656V56.232C41.9999 56.8956 42.5375 57.432 43.1999 57.432C43.8623 57.432 44.3999 56.8956 44.3999 56.232V53.5656C44.3999 51.9312 43.5887 50.4168 42.2303 49.512Z" fill="#2B3C4E"/>
</svg>
